<?xml version="1.0" encoding="UTF-8" standalone="no"?>
<!-- Created with Inkscape (http://www.inkscape.org/) -->

<svg
   width="120mm"
   height="120mm"
   viewBox="0 0 120 120"
   version="1.1"
   id="svg1"
   inkscape:version="1.4 (e7c3feb1, 2024-10-09)"
   sodipodi:docname="Chimp logo (Black).svg"
   xmlns:inkscape="http://www.inkscape.org/namespaces/inkscape"
   xmlns:sodipodi="http://sodipodi.sourceforge.net/DTD/sodipodi-0.dtd"
   xmlns="http://www.w3.org/2000/svg"
   xmlns:svg="http://www.w3.org/2000/svg">
  <sodipodi:namedview
     id="namedview1"
     pagecolor="#8b8b8b"
     bordercolor="#000000"
     borderopacity="0.25"
     inkscape:showpageshadow="2"
     inkscape:pageopacity="0.0"
     inkscape:pagecheckerboard="0"
     inkscape:deskcolor="#686868"
     inkscape:document-units="mm"
     inkscape:zoom="0.88716347"
     inkscape:cx="189.36758"
     inkscape:cy="243.4726"
     inkscape:window-width="1360"
     inkscape:window-height="757"
     inkscape:window-x="0"
     inkscape:window-y="25"
     inkscape:window-maximized="0"
     inkscape:current-layer="layer1" />
  <defs
     id="defs1">
    <clipPath
       clipPathUnits="userSpaceOnUse"
       id="clipPath68">
      <path
         d="M 0,2000 H 2000 V 0 H 0 Z"
         transform="translate(-682.84724,-1021.9365)"
         id="path68" />
    </clipPath>
    <clipPath
       clipPathUnits="userSpaceOnUse"
       id="clipPath70">
      <path
         d="M 0,2000 H 2000 V 0 H 0 Z"
         transform="translate(-533.71889,-1052.9876)"
         id="path70" />
    </clipPath>
    <clipPath
       clipPathUnits="userSpaceOnUse"
       id="clipPath72">
      <path
         d="M 0,2000 H 2000 V 0 H 0 Z"
         transform="translate(-748.24372,-1048.6328)"
         id="path72" />
    </clipPath>
    <clipPath
       clipPathUnits="userSpaceOnUse"
       id="clipPath74">
      <path
         d="M 0,2000 H 2000 V 0 H 0 Z"
         transform="translate(-640.73152,-994.92555)"
         id="path74" />
    </clipPath>
    <clipPath
       clipPathUnits="userSpaceOnUse"
       id="clipPath76">
      <path
         d="M 0,2000 H 2000 V 0 H 0 Z"
         transform="translate(-631.48072,-994.92555)"
         id="path76" />
    </clipPath>
    <clipPath
       clipPathUnits="userSpaceOnUse"
       id="clipPath78">
      <path
         d="M 0,2000 H 2000 V 0 H 0 Z"
         transform="translate(-609.13372,-1046.9208)"
         id="path78" />
    </clipPath>
    <clipPath
       clipPathUnits="userSpaceOnUse"
       id="clipPath80">
      <path
         d="M 0,2000 H 2000 V 0 H 0 Z"
         transform="translate(-602.95544,-1044.1919)"
         id="path80" />
    </clipPath>
    <clipPath
       clipPathUnits="userSpaceOnUse"
       id="clipPath82">
      <path
         d="M 0,2000 H 2000 V 0 H 0 Z"
         transform="translate(-663.31192,-1046.9208)"
         id="path82" />
    </clipPath>
    <clipPath
       clipPathUnits="userSpaceOnUse"
       id="clipPath84">
      <path
         d="M 0,2000 H 2000 V 0 H 0 Z"
         transform="translate(-671.15339,-1043.265)"
         id="path84" />
    </clipPath>
  </defs>
  <g
     inkscape:label="Layer 1"
     inkscape:groupmode="layer"
     id="layer1">
    <path
       id="path67"
       d="m 0,0 c -12.891,-5.3 -27.766,6.494 -28.74,7.288 -0.11,-0.049 -0.219,-0.098 -0.33,-0.147 5.016,-8.175 14.572,-16.483 9.171,-26.789 14.77,-1.79 19.17,-21.575 19.237,-34.098 -8.554,-4.102 -23.745,-10.024 -43.527,-10.676 -22.741,-0.748 -40.223,5.841 -49.154,9.948 -0.827,13.461 3.348,32.676 18.892,35.339 -4.008,8.908 1.532,15.885 7.155,22.754 -0.271,0.315 -0.543,0.63 -0.814,0.945 -48.404,-30.11 -60.585,58.881 -9.661,48.575 C -67.453,50.14 -57.36,46.23 -47.556,41.703 -19.454,57.531 -1.617,56.032 7.903,47.761 20.849,36.513 15.826,6.506 0,0 m -92.147,-61.794 c 8.018,-3.958 23.77,-10.419 44.572,-10.469 21.596,-0.053 37.871,6.829 45.905,10.889 -7.668,-46.699 -82.356,-48.185 -90.477,-0.42 m 140.449,43.812 c 35.155,2.826 52.22,54.868 20.495,74.347 -12.203,7.938 -25.103,7.791 -37.854,0.778 -3.798,-1.23 -6.706,-6.954 -10.988,-4.316 2.365,1.094 4.393,2.032 6.595,3.051 -5.264,10.082 -14.429,15.76 -23.833,21.279 3.63,-0.833 7.259,-1.666 11.058,-2.538 -12.714,21.995 -40.251,30.645 -64.902,29.424 -24.141,-2.264 -49.788,-2.88 -69.033,14.361 -0.262,-0.183 -0.523,-0.366 -0.785,-0.55 12.125,-28.093 26.995,-31.749 55.172,-35.439 -9.522,-3.961 -21.723,-1.502 -31.641,-4.898 -8.388,-5.892 -17.139,-12.306 -22.297,-21.358 2.43,-1.284 4.478,-2.366 6.765,-3.574 -1.963,-1.817 -3.44,-1.019 -4.891,-0.257 -60.652,40.582 -92.072,-58.747 -24.049,-70.837 0.247,4.336 2.56223,22.4256574 2.79723,26.5586574 C -188.01677,17.345657 -163.448,76.742 -123.212,37.963 c -7.046,-13.166 -14.474,-45.404 -11.315,-55.476 7.665,6.378 12.52,14.87 16.926,24.292 -1.035,-25.083 -15.326,-38.14 -37.508,-44.741 9.981,-0.772 19.59,-2.472 28.63,3.878 -7.872,-18.495 -3.416,-38.78 8.066,-54.195 -1.282,11.957 -1.475,23.636 4.506,34.574 0.456,-15.893 5.019,-33.008 15.453,-45.174 1.007,4.408 2.014,8.817 3.02,13.224 -0.218,-22.01 6.119,-31.923 12.312,-36.861 7.008,-5.588 14.071,-4.969 18.805,-11.641 5.647,-7.961 3.255,-19.445 0.218,-28.12 3.844,2.195 8.157,5.014 12.616,8.619 6.026,4.872 10.66,9.841 14.128,14.128 -2.764,-6.681 -5.527,-13.362 -8.291,-20.042 8.934,3.767 31.381,14.64 47.889,39.742 18.957,28.825 17.909,57.904 17.205,67.109 5.31,-11.273 5.864,-22.609 5.204,-34.21 10.173,15.553 15.112,32.098 9.633,50.745 8.469,-4.666 17.108,-3.26 25.828,-1.686 C 40.881,-32.296 21.508846,-13.094229 23.309846,7.6087712 26.782846,-2.4602288 33.275,-11.247 40.605,-18.872 42.741,2.345 35.109,21.139 28.438,40.551 28.802,40.494 29.564,40.373 30.387,40.243 70.162,73.697 91.915171,16.241332 45.706171,6.4423318"
       style="display:inline;fill:#ffffff;fill-opacity:1;fill-rule:nonzero;stroke:#ffffff;stroke-width:0;stroke-dasharray:none;stroke-opacity:1"
       transform="matrix(0.35277776,0,0,-0.35277776,77.548813,52.48739)"
       clip-path="url(#clipPath68)"
       sodipodi:nodetypes="ccccccccccccccccccccccccccccccccccccccccccccsccscccccccccccc"
       inkscape:label="Face" />
    <path
       id="path69"
       d="M 0,0 C -4.634,-0.306 -8.681,-0.721 -10.92,-5.709 -9.629,10.567 8.534,13.54 18.474,2.792 12.975,-6.847 10.186,-17.304 9.014,-28.577 -4.228,-25.235 -9.605,-11.87 0,0"
       style="display:inline;fill:#ffffff;fill-opacity:1;fill-rule:nonzero;stroke:none;stroke-width:0;stroke-dasharray:none"
       transform="matrix(0.35277776,0,0,-0.35277776,24.939627,41.53327)"
       clip-path="url(#clipPath70)"
       inkscape:label="Ear Left" />
    <path
       id="path71"
       d="m 0,0 c -2.258,4.668 -6.312,4.793 -11.026,4.442 9.464,-9.433 4.191,-25.147 -8.125,-28.385 -1.517,10.745 -4.288,20.955 -9.651,30.376 C -20.761,18.489 -2.085,14.593 0,0"
       style="display:inline;fill:#ffffff;fill-opacity:1;fill-rule:nonzero;stroke:none;stroke-width:0;stroke-dasharray:none"
       transform="matrix(0.35277776,0,0,-0.35277776,100.61923,43.06954)"
       clip-path="url(#clipPath72)"
       inkscape:label="Ear Right" />
    <path
       id="path75"
       d="M 0,0 C 2.135,9.433 0.258,16.764 -7.831,22.113 -23.785,15.849 -6.408,6.022 0,0"
       style="display:inline;fill:#ffffff;fill-opacity:1;fill-rule:nonzero;stroke:none;stroke-width:0;stroke-dasharray:none"
       transform="matrix(0.35277776,0,0,-0.35277776,59.427843,62.01625)"
       clip-path="url(#clipPath76)"
       inkscape:label="Nose Left" />
    <path
       id="path73"
       d="M 0,0 C -2.135,9.433 -0.258,16.764 7.831,22.113 23.785,15.849 6.408,6.022 0,0"
       style="display:inline;fill:#ffffff;fill-opacity:1;fill-rule:nonzero;stroke:none;stroke-width:0;stroke-dasharray:none"
       transform="matrix(0.35277777,0,0,-0.35277777,62.691322,62.016251)"
       clip-path="url(#clipPath74)"
       inkscape:label="Nose Right" />
    <path
       id="path77"
       d="m 0,0 c 0,-9.974 -5.851,-18.059 -13.069,-18.059 -7.218,0 -13.07,8.085 -13.07,18.059 0,9.974 5.852,18.059 13.07,18.059 C -5.851,18.059 0,9.974 0,0"
       style="display:inline;fill:#ffffff;fill-opacity:1;fill-rule:nonzero;stroke:none;stroke-width:0;stroke-dasharray:none"
       transform="matrix(0.35277776,0,0,-0.35277776,51.544317,43.67348)"
       clip-path="url(#clipPath78)"
       inkscape:label="Eye Left" />
    <path
       id="path81"
       d="m 0,0 c 0,-9.974 5.851,-18.059 13.069,-18.059 7.218,0 13.07,8.085 13.07,18.059 0,9.974 -5.852,18.059 -13.07,18.059 C 5.851,18.059 0,9.974 0,0"
       style="display:inline;fill:#ffffff;fill-opacity:1;fill-rule:nonzero;stroke:none;stroke-width:0;stroke-dasharray:none"
       transform="matrix(0.35277776,0,0,-0.35277776,70.657183,43.67348)"
       clip-path="url(#clipPath82)"
       inkscape:label="Eye Right" />
  </g>
</svg>
