<svg xmlns="http://www.w3.org/2000/svg" xmlns:xlink="http://www.w3.org/1999/xlink" width="500" zoomAndPan="magnify" viewBox="0 0 375 374.999991" height="500" preserveAspectRatio="xMidYMid meet" version="1.0"><path fill="#ff6b65" d="M 242.339844 164.023438 C 228.128906 169.867188 211.730469 156.863281 210.65625 155.988281 C 210.535156 156.042969 210.414062 156.097656 210.292969 156.152344 C 215.820312 165.164062 226.355469 174.320312 220.402344 185.683594 C 236.6875 187.65625 241.535156 209.46875 241.609375 223.273438 C 232.179688 227.796875 215.433594 234.324219 193.625 235.042969 C 168.554688 235.867188 149.28125 228.605469 139.4375 224.078125 C 138.523438 209.238281 143.125 188.054688 160.261719 185.117188 C 155.84375 175.296875 161.953125 167.605469 168.152344 160.035156 C 167.851562 159.6875 167.550781 159.339844 167.253906 158.992188 C 113.890625 192.1875 100.460938 94.078125 156.601562 105.441406 C 167.976562 108.746094 179.105469 113.058594 189.914062 118.046875 C 220.894531 100.597656 240.558594 102.25 251.050781 111.371094 C 265.324219 123.769531 259.785156 156.851562 242.339844 164.023438 M 140.753906 232.148438 C 149.59375 236.511719 166.960938 243.632812 189.890625 243.6875 C 213.699219 243.746094 231.640625 236.160156 240.5 231.683594 C 232.046875 283.167969 149.707031 284.804688 140.753906 232.148438 M 295.589844 183.847656 C 334.34375 180.730469 353.160156 123.359375 318.183594 101.882812 C 304.730469 93.132812 290.507812 93.296875 276.453125 101.027344 C 272.265625 102.382812 269.058594 108.691406 264.339844 105.785156 C 266.945312 104.578125 269.183594 103.542969 271.609375 102.421875 C 265.804688 91.308594 255.703125 85.046875 245.335938 78.960938 C 249.335938 79.882812 253.335938 80.800781 257.527344 81.761719 C 243.507812 57.511719 213.152344 47.976562 185.976562 49.324219 C 159.363281 51.820312 131.089844 52.496094 109.871094 33.492188 C 109.582031 33.691406 109.296875 33.894531 109.007812 34.097656 C 122.375 65.066406 138.765625 69.097656 169.828125 73.167969 C 159.332031 77.53125 145.882812 74.820312 134.949219 78.566406 C 125.699219 85.0625 116.054688 92.132812 110.367188 102.113281 C 113.046875 103.527344 115.304688 104.71875 117.824219 106.050781 C 115.660156 108.054688 114.03125 107.175781 112.433594 106.335938 C 45.566406 61.597656 10.929688 171.097656 85.921875 184.429688 C 86.191406 179.648438 88.746094 159.707031 89.003906 155.148438 C 35.066406 144.902344 62.148438 79.421875 106.507812 122.171875 C 98.738281 136.6875 90.550781 172.226562 94.035156 183.328125 C 102.484375 176.296875 107.835938 166.9375 112.691406 156.550781 C 111.550781 184.203125 95.796875 198.597656 71.34375 205.875 C 82.347656 206.726562 92.941406 208.597656 102.90625 201.597656 C 94.226562 221.988281 99.140625 244.351562 111.796875 261.34375 C 110.382812 248.164062 110.171875 235.289062 116.765625 223.230469 C 117.269531 240.75 122.296875 259.617188 133.800781 273.03125 C 134.910156 268.171875 136.023438 263.308594 137.128906 258.453125 C 136.890625 282.714844 143.875 293.644531 150.703125 299.089844 C 158.429688 305.25 166.214844 304.566406 171.433594 311.921875 C 177.660156 320.699219 175.023438 333.359375 171.675781 342.921875 C 175.914062 340.503906 180.667969 337.394531 185.582031 333.421875 C 192.226562 328.050781 197.335938 322.570312 201.160156 317.84375 C 198.113281 325.210938 195.066406 332.574219 192.019531 339.941406 C 201.867188 335.789062 226.613281 323.800781 244.8125 296.128906 C 265.710938 264.351562 264.554688 232.292969 263.78125 222.144531 C 269.632812 234.570312 270.246094 247.070312 269.515625 259.859375 C 280.730469 242.710938 286.175781 224.472656 280.136719 203.914062 C 289.472656 209.058594 298.996094 207.507812 308.609375 205.773438 C 287.410156 199.628906 266.050781 178.457031 268.039062 155.636719 C 271.867188 166.734375 279.023438 176.421875 287.105469 184.828125 C 289.460938 161.4375 281.046875 140.71875 273.691406 119.320312 C 274.09375 119.382812 274.933594 119.515625 275.839844 119.65625 C 319.6875 82.777344 343.671875 146.117188 292.726562 156.921875 " fill-opacity="1" fill-rule="nonzero"/><path fill="#ff6b65" d="M 77.9375 129.792969 C 72.828125 130.128906 68.367188 130.585938 65.898438 136.085938 C 67.320312 118.140625 87.34375 114.863281 98.300781 126.714844 C 92.242188 137.339844 89.164062 148.867188 87.875 161.296875 C 73.273438 157.609375 67.347656 142.878906 77.9375 129.792969 " fill-opacity="1" fill-rule="nonzero"/><path fill="#ff6b65" d="M 314.433594 134.59375 C 311.945312 129.445312 307.476562 129.308594 302.28125 129.695312 C 312.714844 140.09375 306.898438 157.417969 293.324219 160.988281 C 291.648438 149.140625 288.59375 137.886719 282.683594 127.5 C 291.546875 114.210938 312.136719 118.503906 314.433594 134.59375 " fill-opacity="1" fill-rule="nonzero"/><path fill="#ff6b65" d="M 185.710938 193.800781 C 188.066406 183.402344 185.996094 175.320312 177.078125 169.421875 C 159.492188 176.328125 178.648438 187.160156 185.710938 193.800781 " fill-opacity="1" fill-rule="nonzero"/><path fill="#ff6b65" d="M 195.910156 193.800781 C 193.558594 183.402344 195.625 175.320312 204.542969 169.421875 C 222.132812 176.328125 202.976562 187.160156 195.910156 193.800781 " fill-opacity="1" fill-rule="nonzero"/><path fill="#ff6b65" d="M 161.074219 136.480469 C 161.074219 147.476562 154.625 156.386719 146.667969 156.386719 C 138.710938 156.386719 132.257812 147.476562 132.257812 136.480469 C 132.257812 125.484375 138.710938 116.570312 146.667969 116.570312 C 154.625 116.570312 161.074219 125.484375 161.074219 136.480469 " fill-opacity="1" fill-rule="nonzero"/><path fill="#ff6b65" d="M 220.804688 136.480469 C 220.804688 147.476562 227.253906 156.386719 235.210938 156.386719 C 243.167969 156.386719 249.621094 147.476562 249.621094 136.480469 C 249.621094 125.484375 243.167969 116.570312 235.210938 116.570312 C 227.253906 116.570312 220.804688 125.484375 220.804688 136.480469 " fill-opacity="1" fill-rule="nonzero"/></svg>